<mxfile host="app.diagrams.net" modified="2021-10-13T07:37:07.175Z" agent="5.0 (Windows NT 10.0; Win64; x64) AppleWebKit/537.36 (KHTML, like Gecko) Chrome/93.0.4577.82 Safari/537.36 OPR/79.0.4143.72" etag="qR1aupp1tBhs5ZN7MGOU" version="15.5.2" type="github">
  <diagram name="Page-1" id="099fd60b-425b-db50-ffb0-6b813814b670">
    <mxGraphModel dx="1489" dy="1460" grid="1" gridSize="2" guides="1" tooltips="1" connect="1" arrows="1" fold="1" page="1" pageScale="1" pageWidth="850" pageHeight="1100" background="none" math="0" shadow="0">
      <root>
        <mxCell id="0" />
        <mxCell id="1" parent="0" />
        <mxCell id="W2R_3UaBkgLsqzf0dmJm-79" value="" style="group" vertex="1" connectable="0" parent="1">
          <mxGeometry x="672" y="16" width="50" height="18" as="geometry" />
        </mxCell>
        <mxCell id="W2R_3UaBkgLsqzf0dmJm-47" value="" style="rounded=1;whiteSpace=wrap;html=1;shadow=0;glass=0;strokeColor=#000000;strokeWidth=0.5;fillColor=none;" vertex="1" parent="W2R_3UaBkgLsqzf0dmJm-79">
          <mxGeometry width="50" height="18" as="geometry" />
        </mxCell>
        <mxCell id="W2R_3UaBkgLsqzf0dmJm-54" value="" style="group;rotation=-90;" vertex="1" connectable="0" parent="W2R_3UaBkgLsqzf0dmJm-79">
          <mxGeometry x="6" y="6.5" width="14.5" height="5" as="geometry" />
        </mxCell>
        <mxCell id="W2R_3UaBkgLsqzf0dmJm-55" value="" style="rounded=1;whiteSpace=wrap;html=1;strokeColor=#FF9933;fillColor=none;glass=0;strokeWidth=0.5;rotation=-90;" vertex="1" parent="W2R_3UaBkgLsqzf0dmJm-54">
          <mxGeometry width="14.5" height="5" as="geometry" />
        </mxCell>
        <mxCell id="W2R_3UaBkgLsqzf0dmJm-56" value="" style="ellipse;whiteSpace=wrap;html=1;aspect=fixed;strokeColor=#FF9933;fillColor=none;strokeWidth=0.5;resizeHeight=1;resizeWidth=1;snapToPoint=1;rotation=-90;" vertex="1" parent="W2R_3UaBkgLsqzf0dmJm-54">
          <mxGeometry x="5.75" y="5" width="3" height="2.5" as="geometry" />
        </mxCell>
        <mxCell id="W2R_3UaBkgLsqzf0dmJm-57" value="" style="ellipse;whiteSpace=wrap;html=1;aspect=fixed;strokeColor=#FF9933;fillColor=none;strokeWidth=0.5;resizeHeight=1;resizeWidth=1;snapToPoint=1;rotation=-90;" vertex="1" parent="W2R_3UaBkgLsqzf0dmJm-54">
          <mxGeometry x="5.75" y="-2.5" width="3" height="2.5" as="geometry" />
        </mxCell>
        <mxCell id="W2R_3UaBkgLsqzf0dmJm-58" value="" style="group;rotation=-90;" vertex="1" connectable="0" parent="W2R_3UaBkgLsqzf0dmJm-79">
          <mxGeometry x="-2" y="6.5" width="14.5" height="5" as="geometry" />
        </mxCell>
        <mxCell id="W2R_3UaBkgLsqzf0dmJm-59" value="" style="rounded=1;whiteSpace=wrap;html=1;strokeColor=#FF9933;fillColor=none;glass=0;strokeWidth=0.5;rotation=-90;" vertex="1" parent="W2R_3UaBkgLsqzf0dmJm-58">
          <mxGeometry width="14.5" height="5" as="geometry" />
        </mxCell>
        <mxCell id="W2R_3UaBkgLsqzf0dmJm-60" value="" style="ellipse;whiteSpace=wrap;html=1;aspect=fixed;strokeColor=#FF9933;fillColor=none;strokeWidth=0.5;resizeHeight=1;resizeWidth=1;snapToPoint=1;rotation=-90;" vertex="1" parent="W2R_3UaBkgLsqzf0dmJm-58">
          <mxGeometry x="5.75" y="5" width="3" height="2.5" as="geometry" />
        </mxCell>
        <mxCell id="W2R_3UaBkgLsqzf0dmJm-61" value="" style="ellipse;whiteSpace=wrap;html=1;aspect=fixed;strokeColor=#FF9933;fillColor=none;strokeWidth=0.5;resizeHeight=1;resizeWidth=1;snapToPoint=1;rotation=-90;" vertex="1" parent="W2R_3UaBkgLsqzf0dmJm-58">
          <mxGeometry x="5.75" y="-2.5" width="3" height="2.5" as="geometry" />
        </mxCell>
        <mxCell id="W2R_3UaBkgLsqzf0dmJm-32" value="" style="group;rotation=-90;" vertex="1" connectable="0" parent="W2R_3UaBkgLsqzf0dmJm-79">
          <mxGeometry x="14" y="6.5" width="14.5" height="5" as="geometry" />
        </mxCell>
        <mxCell id="W2R_3UaBkgLsqzf0dmJm-33" value="" style="rounded=1;whiteSpace=wrap;html=1;strokeColor=#FF9933;fillColor=none;glass=0;strokeWidth=0.5;rotation=-90;" vertex="1" parent="W2R_3UaBkgLsqzf0dmJm-32">
          <mxGeometry width="14.5" height="5" as="geometry" />
        </mxCell>
        <mxCell id="W2R_3UaBkgLsqzf0dmJm-34" value="" style="ellipse;whiteSpace=wrap;html=1;aspect=fixed;strokeColor=#FF9933;fillColor=none;strokeWidth=0.5;resizeHeight=1;resizeWidth=1;snapToPoint=1;rotation=-90;" vertex="1" parent="W2R_3UaBkgLsqzf0dmJm-32">
          <mxGeometry x="5.75" y="5" width="3" height="2.5" as="geometry" />
        </mxCell>
        <mxCell id="W2R_3UaBkgLsqzf0dmJm-35" value="" style="ellipse;whiteSpace=wrap;html=1;aspect=fixed;strokeColor=#FF9933;fillColor=none;strokeWidth=0.5;resizeHeight=1;resizeWidth=1;snapToPoint=1;rotation=-90;" vertex="1" parent="W2R_3UaBkgLsqzf0dmJm-32">
          <mxGeometry x="5.75" y="-2.5" width="3" height="2.5" as="geometry" />
        </mxCell>
        <mxCell id="W2R_3UaBkgLsqzf0dmJm-67" value="" style="group;rotation=-90;" vertex="1" connectable="0" parent="W2R_3UaBkgLsqzf0dmJm-79">
          <mxGeometry x="38" y="6.5" width="14.5" height="5" as="geometry" />
        </mxCell>
        <mxCell id="W2R_3UaBkgLsqzf0dmJm-68" value="" style="rounded=1;whiteSpace=wrap;html=1;strokeColor=#FF9933;fillColor=none;glass=0;strokeWidth=0.5;rotation=-90;" vertex="1" parent="W2R_3UaBkgLsqzf0dmJm-67">
          <mxGeometry width="14.5" height="5" as="geometry" />
        </mxCell>
        <mxCell id="W2R_3UaBkgLsqzf0dmJm-69" value="" style="ellipse;whiteSpace=wrap;html=1;aspect=fixed;strokeColor=#FF9933;fillColor=none;strokeWidth=0.5;resizeHeight=1;resizeWidth=1;snapToPoint=1;rotation=-90;" vertex="1" parent="W2R_3UaBkgLsqzf0dmJm-67">
          <mxGeometry x="5.75" y="5" width="3" height="2.5" as="geometry" />
        </mxCell>
        <mxCell id="W2R_3UaBkgLsqzf0dmJm-70" value="" style="ellipse;whiteSpace=wrap;html=1;aspect=fixed;strokeColor=#FF9933;fillColor=none;strokeWidth=0.5;resizeHeight=1;resizeWidth=1;snapToPoint=1;rotation=-90;" vertex="1" parent="W2R_3UaBkgLsqzf0dmJm-67">
          <mxGeometry x="5.75" y="-2.5" width="3" height="2.5" as="geometry" />
        </mxCell>
        <mxCell id="W2R_3UaBkgLsqzf0dmJm-71" value="" style="group;rotation=-90;" vertex="1" connectable="0" parent="W2R_3UaBkgLsqzf0dmJm-79">
          <mxGeometry x="30" y="6.5" width="14.5" height="5" as="geometry" />
        </mxCell>
        <mxCell id="W2R_3UaBkgLsqzf0dmJm-72" value="" style="rounded=1;whiteSpace=wrap;html=1;strokeColor=#FF9933;fillColor=none;glass=0;strokeWidth=0.5;rotation=-90;" vertex="1" parent="W2R_3UaBkgLsqzf0dmJm-71">
          <mxGeometry width="14.5" height="5" as="geometry" />
        </mxCell>
        <mxCell id="W2R_3UaBkgLsqzf0dmJm-73" value="" style="ellipse;whiteSpace=wrap;html=1;aspect=fixed;strokeColor=#FF9933;fillColor=none;strokeWidth=0.5;resizeHeight=1;resizeWidth=1;snapToPoint=1;rotation=-90;" vertex="1" parent="W2R_3UaBkgLsqzf0dmJm-71">
          <mxGeometry x="5.75" y="5" width="3" height="2.5" as="geometry" />
        </mxCell>
        <mxCell id="W2R_3UaBkgLsqzf0dmJm-74" value="" style="ellipse;whiteSpace=wrap;html=1;aspect=fixed;strokeColor=#FF9933;fillColor=none;strokeWidth=0.5;resizeHeight=1;resizeWidth=1;snapToPoint=1;rotation=-90;" vertex="1" parent="W2R_3UaBkgLsqzf0dmJm-71">
          <mxGeometry x="5.75" y="-2.5" width="3" height="2.5" as="geometry" />
        </mxCell>
        <mxCell id="W2R_3UaBkgLsqzf0dmJm-75" value="" style="group;rotation=-90;" vertex="1" connectable="0" parent="W2R_3UaBkgLsqzf0dmJm-79">
          <mxGeometry x="22" y="6.5" width="14.5" height="5" as="geometry" />
        </mxCell>
        <mxCell id="W2R_3UaBkgLsqzf0dmJm-76" value="" style="rounded=1;whiteSpace=wrap;html=1;strokeColor=#FF9933;fillColor=none;glass=0;strokeWidth=0.5;rotation=-90;" vertex="1" parent="W2R_3UaBkgLsqzf0dmJm-75">
          <mxGeometry width="14.5" height="5" as="geometry" />
        </mxCell>
        <mxCell id="W2R_3UaBkgLsqzf0dmJm-77" value="" style="ellipse;whiteSpace=wrap;html=1;aspect=fixed;strokeColor=#FF9933;fillColor=none;strokeWidth=0.5;resizeHeight=1;resizeWidth=1;snapToPoint=1;rotation=-90;" vertex="1" parent="W2R_3UaBkgLsqzf0dmJm-75">
          <mxGeometry x="5.75" y="5" width="3" height="2.5" as="geometry" />
        </mxCell>
        <mxCell id="W2R_3UaBkgLsqzf0dmJm-78" value="" style="ellipse;whiteSpace=wrap;html=1;aspect=fixed;strokeColor=#FF9933;fillColor=none;strokeWidth=0.5;resizeHeight=1;resizeWidth=1;snapToPoint=1;rotation=-90;" vertex="1" parent="W2R_3UaBkgLsqzf0dmJm-75">
          <mxGeometry x="5.75" y="-2.5" width="3" height="2.5" as="geometry" />
        </mxCell>
        <mxCell id="W2R_3UaBkgLsqzf0dmJm-80" value="FAP__" style="text;html=1;resizable=0;autosize=1;align=center;verticalAlign=middle;points=[];fillColor=none;strokeColor=none;rounded=0;shadow=0;glass=0;" vertex="1" parent="1">
          <mxGeometry x="666" y="-4" width="48" height="20" as="geometry" />
        </mxCell>
        <mxCell id="W2R_3UaBkgLsqzf0dmJm-81" value="" style="group" vertex="1" connectable="0" parent="1">
          <mxGeometry x="646" y="62" width="62" height="55" as="geometry" />
        </mxCell>
        <mxCell id="W2R_3UaBkgLsqzf0dmJm-10" value="" style="fontColor=#0066CC;verticalAlign=top;verticalLabelPosition=bottom;labelPosition=center;align=center;html=1;outlineConnect=0;fillColor=#CCCCCC;strokeColor=#6881B3;gradientColor=none;gradientDirection=north;strokeWidth=2;shape=mxgraph.networks.ups_enterprise;glass=0;" vertex="1" parent="W2R_3UaBkgLsqzf0dmJm-81">
          <mxGeometry x="32" width="30" height="55" as="geometry" />
        </mxCell>
        <mxCell id="W2R_3UaBkgLsqzf0dmJm-23" value="" style="group;rotation=-90;" vertex="1" connectable="0" parent="W2R_3UaBkgLsqzf0dmJm-81">
          <mxGeometry x="22" y="6" width="14.5" height="5" as="geometry" />
        </mxCell>
        <mxCell id="W2R_3UaBkgLsqzf0dmJm-5" value="" style="rounded=1;whiteSpace=wrap;html=1;strokeColor=#FF9933;fillColor=none;glass=0;strokeWidth=0.5;rotation=-90;" vertex="1" parent="W2R_3UaBkgLsqzf0dmJm-23">
          <mxGeometry width="14.5" height="5" as="geometry" />
        </mxCell>
        <mxCell id="W2R_3UaBkgLsqzf0dmJm-6" value="" style="ellipse;whiteSpace=wrap;html=1;aspect=fixed;strokeColor=#FF9933;fillColor=none;strokeWidth=0.5;resizeHeight=1;resizeWidth=1;snapToPoint=1;rotation=-90;" vertex="1" parent="W2R_3UaBkgLsqzf0dmJm-23">
          <mxGeometry x="6" y="4" width="3" height="2.5" as="geometry" />
        </mxCell>
        <mxCell id="W2R_3UaBkgLsqzf0dmJm-7" value="" style="ellipse;whiteSpace=wrap;html=1;aspect=fixed;strokeColor=#FF9933;fillColor=none;strokeWidth=0.5;resizeHeight=1;resizeWidth=1;snapToPoint=1;rotation=-90;" vertex="1" parent="W2R_3UaBkgLsqzf0dmJm-23">
          <mxGeometry x="6" y="-2" width="3" height="2.5" as="geometry" />
        </mxCell>
        <mxCell id="W2R_3UaBkgLsqzf0dmJm-82" value="" style="group" vertex="1" connectable="0" parent="1">
          <mxGeometry x="660" y="-146" width="62" height="55" as="geometry" />
        </mxCell>
        <mxCell id="W2R_3UaBkgLsqzf0dmJm-83" value="" style="fontColor=#0066CC;verticalAlign=top;verticalLabelPosition=bottom;labelPosition=center;align=center;html=1;outlineConnect=0;fillColor=#CCCCCC;strokeColor=#6881B3;gradientColor=none;gradientDirection=north;strokeWidth=2;shape=mxgraph.networks.ups_enterprise;glass=0;" vertex="1" parent="W2R_3UaBkgLsqzf0dmJm-82">
          <mxGeometry x="32" width="30" height="55" as="geometry" />
        </mxCell>
        <mxCell id="W2R_3UaBkgLsqzf0dmJm-84" style="edgeStyle=none;rounded=0;orthogonalLoop=1;jettySize=auto;html=1;endArrow=none;endFill=0;strokeColor=#FF9933;entryX=1;entryY=0.518;entryDx=0;entryDy=0;entryPerimeter=0;startArrow=oval;startFill=1;strokeWidth=0.5;endSize=1;startSize=1;exitX=0.497;exitY=0.448;exitDx=0;exitDy=0;exitPerimeter=0;" edge="1" parent="W2R_3UaBkgLsqzf0dmJm-82" source="W2R_3UaBkgLsqzf0dmJm-88">
          <mxGeometry relative="1" as="geometry">
            <mxPoint y="1.4400000000000546" as="targetPoint" />
            <mxPoint x="32" y="-35" as="sourcePoint" />
          </mxGeometry>
        </mxCell>
        <mxCell id="W2R_3UaBkgLsqzf0dmJm-85" value="" style="group;rotation=-90;" vertex="1" connectable="0" parent="W2R_3UaBkgLsqzf0dmJm-82">
          <mxGeometry x="22" y="6" width="14.5" height="5" as="geometry" />
        </mxCell>
        <mxCell id="W2R_3UaBkgLsqzf0dmJm-86" value="" style="rounded=1;whiteSpace=wrap;html=1;strokeColor=#FF9933;fillColor=none;glass=0;strokeWidth=0.5;rotation=-90;" vertex="1" parent="W2R_3UaBkgLsqzf0dmJm-85">
          <mxGeometry width="14.5" height="5" as="geometry" />
        </mxCell>
        <mxCell id="W2R_3UaBkgLsqzf0dmJm-87" value="" style="ellipse;whiteSpace=wrap;html=1;aspect=fixed;strokeColor=#FF9933;fillColor=none;strokeWidth=0.5;resizeHeight=1;resizeWidth=1;snapToPoint=1;rotation=-90;" vertex="1" parent="W2R_3UaBkgLsqzf0dmJm-85">
          <mxGeometry x="6" y="4" width="3" height="2.5" as="geometry" />
        </mxCell>
        <mxCell id="W2R_3UaBkgLsqzf0dmJm-88" value="" style="ellipse;whiteSpace=wrap;html=1;aspect=fixed;strokeColor=#FF9933;fillColor=none;strokeWidth=0.5;resizeHeight=1;resizeWidth=1;snapToPoint=1;rotation=-90;" vertex="1" parent="W2R_3UaBkgLsqzf0dmJm-85">
          <mxGeometry x="6" y="-2" width="3" height="2.5" as="geometry" />
        </mxCell>
        <mxCell id="W2R_3UaBkgLsqzf0dmJm-16" style="edgeStyle=orthogonalEdgeStyle;rounded=0;orthogonalLoop=1;jettySize=auto;html=1;endArrow=none;endFill=0;strokeColor=#FF9933;entryX=0.486;entryY=0.642;entryDx=0;entryDy=0;startArrow=oval;startFill=1;strokeWidth=0.5;endSize=1;startSize=1;exitX=0.497;exitY=0.448;exitDx=0;exitDy=0;exitPerimeter=0;entryPerimeter=0;curved=1;" edge="1" parent="1" source="W2R_3UaBkgLsqzf0dmJm-7" target="W2R_3UaBkgLsqzf0dmJm-60">
          <mxGeometry relative="1" as="geometry">
            <mxPoint x="646" y="63.440000000000055" as="targetPoint" />
            <mxPoint x="678" y="27" as="sourcePoint" />
            <Array as="points">
              <mxPoint x="658" y="67" />
              <mxPoint x="658" y="29" />
            </Array>
          </mxGeometry>
        </mxCell>
        <mxCell id="W2R_3UaBkgLsqzf0dmJm-89" value="" style="group" vertex="1" connectable="0" parent="1">
          <mxGeometry x="676" y="-26" width="50" height="18" as="geometry" />
        </mxCell>
        <mxCell id="W2R_3UaBkgLsqzf0dmJm-90" value="" style="rounded=1;whiteSpace=wrap;html=1;shadow=0;glass=0;strokeColor=#000000;strokeWidth=0.5;fillColor=none;" vertex="1" parent="W2R_3UaBkgLsqzf0dmJm-89">
          <mxGeometry width="50" height="18" as="geometry" />
        </mxCell>
        <mxCell id="W2R_3UaBkgLsqzf0dmJm-91" value="" style="group;rotation=-90;" vertex="1" connectable="0" parent="W2R_3UaBkgLsqzf0dmJm-89">
          <mxGeometry x="6" y="6.5" width="14.5" height="5" as="geometry" />
        </mxCell>
        <mxCell id="W2R_3UaBkgLsqzf0dmJm-92" value="" style="rounded=1;whiteSpace=wrap;html=1;strokeColor=#FF9933;fillColor=none;glass=0;strokeWidth=0.5;rotation=-90;" vertex="1" parent="W2R_3UaBkgLsqzf0dmJm-91">
          <mxGeometry width="14.5" height="5" as="geometry" />
        </mxCell>
        <mxCell id="W2R_3UaBkgLsqzf0dmJm-93" value="" style="ellipse;whiteSpace=wrap;html=1;aspect=fixed;strokeColor=#FF9933;fillColor=none;strokeWidth=0.5;resizeHeight=1;resizeWidth=1;snapToPoint=1;rotation=-90;" vertex="1" parent="W2R_3UaBkgLsqzf0dmJm-91">
          <mxGeometry x="5.75" y="5" width="3" height="2.5" as="geometry" />
        </mxCell>
        <mxCell id="W2R_3UaBkgLsqzf0dmJm-94" value="" style="ellipse;whiteSpace=wrap;html=1;aspect=fixed;strokeColor=#FF9933;fillColor=none;strokeWidth=0.5;resizeHeight=1;resizeWidth=1;snapToPoint=1;rotation=-90;" vertex="1" parent="W2R_3UaBkgLsqzf0dmJm-91">
          <mxGeometry x="5.75" y="-2.5" width="3" height="2.5" as="geometry" />
        </mxCell>
        <mxCell id="W2R_3UaBkgLsqzf0dmJm-95" value="" style="group;rotation=-90;" vertex="1" connectable="0" parent="W2R_3UaBkgLsqzf0dmJm-89">
          <mxGeometry x="-2" y="6.5" width="14.5" height="5" as="geometry" />
        </mxCell>
        <mxCell id="W2R_3UaBkgLsqzf0dmJm-96" value="" style="rounded=1;whiteSpace=wrap;html=1;strokeColor=#FF9933;fillColor=none;glass=0;strokeWidth=0.5;rotation=-90;" vertex="1" parent="W2R_3UaBkgLsqzf0dmJm-95">
          <mxGeometry width="14.5" height="5" as="geometry" />
        </mxCell>
        <mxCell id="W2R_3UaBkgLsqzf0dmJm-97" value="" style="ellipse;whiteSpace=wrap;html=1;aspect=fixed;strokeColor=#FF9933;fillColor=none;strokeWidth=0.5;resizeHeight=1;resizeWidth=1;snapToPoint=1;rotation=-90;" vertex="1" parent="W2R_3UaBkgLsqzf0dmJm-95">
          <mxGeometry x="5.75" y="5" width="3" height="2.5" as="geometry" />
        </mxCell>
        <mxCell id="W2R_3UaBkgLsqzf0dmJm-98" value="" style="ellipse;whiteSpace=wrap;html=1;aspect=fixed;strokeColor=#FF9933;fillColor=none;strokeWidth=0.5;resizeHeight=1;resizeWidth=1;snapToPoint=1;rotation=-90;" vertex="1" parent="W2R_3UaBkgLsqzf0dmJm-95">
          <mxGeometry x="5.75" y="-2.5" width="3" height="2.5" as="geometry" />
        </mxCell>
        <mxCell id="W2R_3UaBkgLsqzf0dmJm-99" value="" style="group;rotation=-90;" vertex="1" connectable="0" parent="W2R_3UaBkgLsqzf0dmJm-89">
          <mxGeometry x="14" y="6.5" width="14.5" height="5" as="geometry" />
        </mxCell>
        <mxCell id="W2R_3UaBkgLsqzf0dmJm-100" value="" style="rounded=1;whiteSpace=wrap;html=1;strokeColor=#FF9933;fillColor=none;glass=0;strokeWidth=0.5;rotation=-90;" vertex="1" parent="W2R_3UaBkgLsqzf0dmJm-99">
          <mxGeometry width="14.5" height="5" as="geometry" />
        </mxCell>
        <mxCell id="W2R_3UaBkgLsqzf0dmJm-101" value="" style="ellipse;whiteSpace=wrap;html=1;aspect=fixed;strokeColor=#FF9933;fillColor=none;strokeWidth=0.5;resizeHeight=1;resizeWidth=1;snapToPoint=1;rotation=-90;" vertex="1" parent="W2R_3UaBkgLsqzf0dmJm-99">
          <mxGeometry x="5.75" y="5" width="3" height="2.5" as="geometry" />
        </mxCell>
        <mxCell id="W2R_3UaBkgLsqzf0dmJm-102" value="" style="ellipse;whiteSpace=wrap;html=1;aspect=fixed;strokeColor=#FF9933;fillColor=none;strokeWidth=0.5;resizeHeight=1;resizeWidth=1;snapToPoint=1;rotation=-90;" vertex="1" parent="W2R_3UaBkgLsqzf0dmJm-99">
          <mxGeometry x="5.75" y="-2.5" width="3" height="2.5" as="geometry" />
        </mxCell>
        <mxCell id="W2R_3UaBkgLsqzf0dmJm-103" value="" style="group;rotation=-90;" vertex="1" connectable="0" parent="W2R_3UaBkgLsqzf0dmJm-89">
          <mxGeometry x="38" y="6.5" width="14.5" height="5" as="geometry" />
        </mxCell>
        <mxCell id="W2R_3UaBkgLsqzf0dmJm-104" value="" style="rounded=1;whiteSpace=wrap;html=1;strokeColor=#FF9933;fillColor=none;glass=0;strokeWidth=0.5;rotation=-90;" vertex="1" parent="W2R_3UaBkgLsqzf0dmJm-103">
          <mxGeometry width="14.5" height="5" as="geometry" />
        </mxCell>
        <mxCell id="W2R_3UaBkgLsqzf0dmJm-105" value="" style="ellipse;whiteSpace=wrap;html=1;aspect=fixed;strokeColor=#FF9933;fillColor=none;strokeWidth=0.5;resizeHeight=1;resizeWidth=1;snapToPoint=1;rotation=-90;" vertex="1" parent="W2R_3UaBkgLsqzf0dmJm-103">
          <mxGeometry x="5.75" y="5" width="3" height="2.5" as="geometry" />
        </mxCell>
        <mxCell id="W2R_3UaBkgLsqzf0dmJm-106" value="" style="ellipse;whiteSpace=wrap;html=1;aspect=fixed;strokeColor=#FF9933;fillColor=none;strokeWidth=0.5;resizeHeight=1;resizeWidth=1;snapToPoint=1;rotation=-90;" vertex="1" parent="W2R_3UaBkgLsqzf0dmJm-103">
          <mxGeometry x="5.75" y="-2.5" width="3" height="2.5" as="geometry" />
        </mxCell>
        <mxCell id="W2R_3UaBkgLsqzf0dmJm-107" value="" style="group;rotation=-90;" vertex="1" connectable="0" parent="W2R_3UaBkgLsqzf0dmJm-89">
          <mxGeometry x="30" y="6.5" width="14.5" height="5" as="geometry" />
        </mxCell>
        <mxCell id="W2R_3UaBkgLsqzf0dmJm-108" value="" style="rounded=1;whiteSpace=wrap;html=1;strokeColor=#FF9933;fillColor=none;glass=0;strokeWidth=0.5;rotation=-90;" vertex="1" parent="W2R_3UaBkgLsqzf0dmJm-107">
          <mxGeometry width="14.5" height="5" as="geometry" />
        </mxCell>
        <mxCell id="W2R_3UaBkgLsqzf0dmJm-109" value="" style="ellipse;whiteSpace=wrap;html=1;aspect=fixed;strokeColor=#FF9933;fillColor=none;strokeWidth=0.5;resizeHeight=1;resizeWidth=1;snapToPoint=1;rotation=-90;" vertex="1" parent="W2R_3UaBkgLsqzf0dmJm-107">
          <mxGeometry x="5.75" y="5" width="3" height="2.5" as="geometry" />
        </mxCell>
        <mxCell id="W2R_3UaBkgLsqzf0dmJm-110" value="" style="ellipse;whiteSpace=wrap;html=1;aspect=fixed;strokeColor=#FF9933;fillColor=none;strokeWidth=0.5;resizeHeight=1;resizeWidth=1;snapToPoint=1;rotation=-90;" vertex="1" parent="W2R_3UaBkgLsqzf0dmJm-107">
          <mxGeometry x="5.75" y="-2.5" width="3" height="2.5" as="geometry" />
        </mxCell>
        <mxCell id="W2R_3UaBkgLsqzf0dmJm-111" value="" style="group;rotation=-90;" vertex="1" connectable="0" parent="W2R_3UaBkgLsqzf0dmJm-89">
          <mxGeometry x="22" y="6.5" width="14.5" height="5" as="geometry" />
        </mxCell>
        <mxCell id="W2R_3UaBkgLsqzf0dmJm-112" value="" style="rounded=1;whiteSpace=wrap;html=1;strokeColor=#FF9933;fillColor=none;glass=0;strokeWidth=0.5;rotation=-90;" vertex="1" parent="W2R_3UaBkgLsqzf0dmJm-111">
          <mxGeometry width="14.5" height="5" as="geometry" />
        </mxCell>
        <mxCell id="W2R_3UaBkgLsqzf0dmJm-113" value="" style="ellipse;whiteSpace=wrap;html=1;aspect=fixed;strokeColor=#FF9933;fillColor=none;strokeWidth=0.5;resizeHeight=1;resizeWidth=1;snapToPoint=1;rotation=-90;" vertex="1" parent="W2R_3UaBkgLsqzf0dmJm-111">
          <mxGeometry x="5.75" y="5" width="3" height="2.5" as="geometry" />
        </mxCell>
        <mxCell id="W2R_3UaBkgLsqzf0dmJm-114" value="" style="ellipse;whiteSpace=wrap;html=1;aspect=fixed;strokeColor=#FF9933;fillColor=none;strokeWidth=0.5;resizeHeight=1;resizeWidth=1;snapToPoint=1;rotation=-90;" vertex="1" parent="W2R_3UaBkgLsqzf0dmJm-111">
          <mxGeometry x="5.75" y="-2.5" width="3" height="2.5" as="geometry" />
        </mxCell>
        <mxCell id="W2R_3UaBkgLsqzf0dmJm-115" value="FAP__" style="text;html=1;resizable=0;autosize=1;align=center;verticalAlign=middle;points=[];fillColor=none;strokeColor=none;rounded=0;shadow=0;glass=0;" vertex="1" parent="1">
          <mxGeometry x="670" y="-46" width="48" height="20" as="geometry" />
        </mxCell>
        <mxCell id="W2R_3UaBkgLsqzf0dmJm-118" value="" style="shape=image;imageAspect=0;aspect=fixed;verticalLabelPosition=bottom;verticalAlign=top;shadow=0;glass=0;strokeColor=#000000;strokeWidth=0.5;fillColor=none;image=https://bl3301files.storage.live.com/y4m92rK5m8fiEbWKacBJs9hdJ52HPZqsqOYVn03hRCGlpKz2L7v0GHJw4eM74FV4Z7ye3uG3kcQ5W5CnKzJCxq71zQREXcDzs9m8Uw9JusOdcoRYCK_eOgKKxeZXtftBTxCDXFFGZua1QCpnxTzUcc4mlMHEph0yDm78FBL6PDzj9s-gcZyqj65-v3rnIuTrb4kv2SmH8vIYFJeg19dKawAoCLvYEBhJs6CaT2whGVk9JU?width=694&amp;height=925&amp;cropmode=center;" vertex="1" parent="1">
          <mxGeometry x="228" y="-39" width="117" height="156" as="geometry" />
        </mxCell>
        <mxCell id="W2R_3UaBkgLsqzf0dmJm-120" value="" style="shape=image;imageAspect=0;aspect=fixed;verticalLabelPosition=bottom;verticalAlign=top;shadow=0;glass=0;strokeColor=#000000;strokeWidth=0.5;fillColor=none;image=https://bl3301files.storage.live.com/y4m7aTzuwme1kSNc5Ivmav0_p_DCNiUkCudyuzyOyrgbsjLBRsMGTbCKCLWHHaSpcMDREKUrozaMLheZkHA73aiqTYhpNAP3kALfBagNgOVQWAWNGgfLqUqWQCy4k2SwEPa4UGF-6dRjgKjtKpj2XAs6S3btSez2PVAiXJbIa_BaLUwR6kaaVNtOJ-7DwIN2NkZIoUouMIFY2QSvhna38TWMp7-h0nMFS9cKnnG8VToJVs?width=309&amp;height=232&amp;cropmode=center;" vertex="1" parent="1">
          <mxGeometry x="-134" y="-44" width="229.08" height="172" as="geometry" />
        </mxCell>
        <mxCell id="W2R_3UaBkgLsqzf0dmJm-48" value="" style="group;rotation=-90;" vertex="1" connectable="0" parent="1">
          <mxGeometry x="320" y="14" width="14.5" height="5" as="geometry" />
        </mxCell>
        <mxCell id="W2R_3UaBkgLsqzf0dmJm-49" value="" style="rounded=1;whiteSpace=wrap;html=1;strokeColor=#FF9933;fillColor=none;glass=0;strokeWidth=0.5;rotation=-90;" vertex="1" parent="W2R_3UaBkgLsqzf0dmJm-48">
          <mxGeometry width="14.5" height="5" as="geometry" />
        </mxCell>
        <mxCell id="W2R_3UaBkgLsqzf0dmJm-50" value="" style="ellipse;whiteSpace=wrap;html=1;aspect=fixed;strokeColor=#FF9933;fillColor=none;strokeWidth=0.5;resizeHeight=1;resizeWidth=1;snapToPoint=1;rotation=-90;" vertex="1" parent="W2R_3UaBkgLsqzf0dmJm-48">
          <mxGeometry x="6" y="4" width="3" height="2.5" as="geometry" />
        </mxCell>
        <mxCell id="W2R_3UaBkgLsqzf0dmJm-51" value="" style="ellipse;whiteSpace=wrap;html=1;aspect=fixed;strokeColor=#FF9933;fillColor=none;strokeWidth=0.5;resizeHeight=1;resizeWidth=1;snapToPoint=1;rotation=-90;" vertex="1" parent="W2R_3UaBkgLsqzf0dmJm-48">
          <mxGeometry x="6" y="-2" width="3" height="2.5" as="geometry" />
        </mxCell>
        <mxCell id="W2R_3UaBkgLsqzf0dmJm-46" style="edgeStyle=orthogonalEdgeStyle;curved=1;rounded=0;orthogonalLoop=1;jettySize=auto;html=1;startArrow=oval;startFill=1;endArrow=none;endFill=0;startSize=1;endSize=1;strokeColor=#FF9933;strokeWidth=0.5;entryX=1;entryY=1;entryDx=0;entryDy=0;exitX=0.591;exitY=0.244;exitDx=0;exitDy=0;exitPerimeter=0;" edge="1" parent="1" source="W2R_3UaBkgLsqzf0dmJm-51" target="W2R_3UaBkgLsqzf0dmJm-61">
          <mxGeometry relative="1" as="geometry">
            <mxPoint x="649.9999999999999" y="-4" as="targetPoint" />
            <mxPoint x="610" y="42" as="sourcePoint" />
            <Array as="points">
              <mxPoint x="306" y="13" />
              <mxPoint x="306" y="35" />
              <mxPoint x="502" y="35" />
              <mxPoint x="502" y="28" />
              <mxPoint x="678" y="28" />
            </Array>
          </mxGeometry>
        </mxCell>
        <mxCell id="W2R_3UaBkgLsqzf0dmJm-45" style="edgeStyle=orthogonalEdgeStyle;curved=1;rounded=0;orthogonalLoop=1;jettySize=auto;html=1;startArrow=oval;startFill=1;endArrow=oval;endFill=1;startSize=1;endSize=1;strokeColor=#FF9933;strokeWidth=0.5;exitX=0.599;exitY=0.461;exitDx=0;exitDy=0;exitPerimeter=0;entryX=0.431;entryY=0.512;entryDx=0;entryDy=0;entryPerimeter=0;" edge="1" parent="1" source="W2R_3UaBkgLsqzf0dmJm-50" target="W2R_3UaBkgLsqzf0dmJm-97">
          <mxGeometry relative="1" as="geometry">
            <mxPoint x="646" y="-44" as="targetPoint" />
            <mxPoint x="596" y="-34" as="sourcePoint" />
          </mxGeometry>
        </mxCell>
        <mxCell id="W2R_3UaBkgLsqzf0dmJm-121" style="edgeStyle=orthogonalEdgeStyle;curved=1;rounded=0;orthogonalLoop=1;jettySize=auto;html=1;entryX=0.594;entryY=0.567;entryDx=0;entryDy=0;entryPerimeter=0;startArrow=oval;startFill=1;endArrow=oval;endFill=1;startSize=1;endSize=1;strokeColor=#FF9933;strokeWidth=0.5;exitX=0.494;exitY=0.49;exitDx=0;exitDy=0;exitPerimeter=0;" edge="1" parent="1" source="W2R_3UaBkgLsqzf0dmJm-98" target="W2R_3UaBkgLsqzf0dmJm-87">
          <mxGeometry relative="1" as="geometry">
            <Array as="points">
              <mxPoint x="688" y="-21" />
              <mxPoint x="688" y="-84" />
              <mxPoint x="678" y="-84" />
              <mxPoint x="678" y="-135" />
            </Array>
          </mxGeometry>
        </mxCell>
      </root>
    </mxGraphModel>
  </diagram>
</mxfile>
